# xmcd CD database file
#
# Track frame offsets:
#	150
#	7665
#	24681
#	38827
#	53485
#	63798
#	79496
#	91712
#
# Disc length: 1420 seconds
#
# Revision: 3
# Processed by: cddbd v1.5.2PL0 Copyright (c) Steve Scherf et al.
# Submitted via: CDex 1.50beta10
#
DISCID=4e058a08
DTITLE=Neko Case - Canadian Amp
DYEAR=2001
DGENRE=Alt Country
TTITLE0=Andy
TTITLE1=Dreaming Man
TTITLE2=Knock Loud
TTITLE3=Make Your Bed
TTITLE4=Poor Ellen Smith
TTITLE5=In California
TTITLE6=Alone and Forsaken
TTITLE7=Favorite
EXTD=YEAR: 2001
EXTT0=
EXTT1=
EXTT2=
EXTT3=
EXTT4=
EXTT5=
EXTT6=
EXTT7=
PLAYORDER=
